<svg width="1200" height="900" viewBox="0 0 1200 900" fill="none" xmlns="http://www.w3.org/2000/svg">
  <defs>
    <linearGradient id="g" x1="0" y1="0" x2="1" y2="1">
      <stop offset="0" stop-color="#1D21CA"/>
      <stop offset="0.5" stop-color="#00A3FF"/>
      <stop offset="1" stop-color="#CC31E8"/>
    </linearGradient>
    <filter id="blur" x="-20%" y="-20%" width="140%" height="140%">
      <feGaussianBlur stdDeviation="40"/>
    </filter>
  </defs>
  <rect width="1200" height="900" rx="48" fill="#0B0B0E"/>
  <circle cx="280" cy="240" r="220" fill="url(#g)" opacity="0.65" filter="url(#blur)"/>
  <circle cx="920" cy="680" r="260" fill="url(#g)" opacity="0.55" filter="url(#blur)"/>
  <rect x="80" y="80" width="1040" height="740" rx="44" fill="#12121A" stroke="rgba(255,255,255,0.08)"/>
  <rect x="120" y="120" width="420" height="560" rx="32" fill="#1A1A26" stroke="rgba(255,255,255,0.08)"/>
  <rect x="580" y="140" width="500" height="44" rx="22" fill="rgba(255,255,255,0.06)"/>
  <rect x="580" y="210" width="460" height="18" rx="9" fill="rgba(255,255,255,0.10)"/>
  <rect x="580" y="244" width="420" height="18" rx="9" fill="rgba(255,255,255,0.08)"/>
  <rect x="580" y="278" width="380" height="18" rx="9" fill="rgba(255,255,255,0.06)"/>
  <rect x="580" y="350" width="460" height="18" rx="9" fill="rgba(255,255,255,0.10)"/>
  <rect x="580" y="384" width="420" height="18" rx="9" fill="rgba(255,255,255,0.08)"/>
  <rect x="580" y="418" width="380" height="18" rx="9" fill="rgba(255,255,255,0.06)"/>
  <rect x="580" y="520" width="240" height="44" rx="22" fill="#1D21CA"/>
  <rect x="840" y="520" width="240" height="44" rx="22" fill="rgba(255,255,255,0.06)" stroke="rgba(255,255,255,0.10)"/>
</svg>
